<svg width="270" height="260" viewBox="0 0 270 260" fill="none" xmlns="http://www.w3.org/2000/svg">
<path d="M183.5 0H0V59.5L64.5 177.5L86 135.5L42 59.5L75 60L100 105L123 59.5L155.5 60L116 135.5L140 177.5L200 59.5L233.5 60L152 210C150.5 211.833 148 215.5 140 215.5C132 215.5 129.5 211.833 128 210L102 162.5L78.5 208C76.3333 210.333 74.5 215.5 64.5 215.5C54.5 215.5 52.3333 209.333 50 206L0 113.5V260L198.5 258C225.5 254.5 266.391 244 269.5 187C271.9 143 234 126 215 122.5C238 114.5 258.299 96.5 257.5 64C256.3 15.2 212.5 0 183.5 0Z" fill="white"/>
</svg>
