<svg width="117" height="73" viewBox="0 0 117 73" fill="none" xmlns="http://www.w3.org/2000/svg">
<path fill-rule="evenodd" clip-rule="evenodd" d="M30.5 58C39.6128 58 47 50.6127 47 41.5C47 32.3873 39.6128 25 30.5 25C21.3872 25 14 32.3873 14 41.5C14 50.6127 21.3872 58 30.5 58ZM30.5 45C32.4331 45 34 43.433 34 41.5C34 39.567 32.4331 38 30.5 38C28.5669 38 27 39.567 27 41.5C27 43.433 28.5669 45 30.5 45Z" fill="white"/>
<path fill-rule="evenodd" clip-rule="evenodd" d="M85.5 58C94.6127 58 102 50.6127 102 41.5C102 32.3873 94.6127 25 85.5 25C76.3873 25 69 32.3873 69 41.5C69 50.6127 76.3873 58 85.5 58ZM85.5 45C87.433 45 89 43.433 89 41.5C89 39.567 87.433 38 85.5 38C83.567 38 82 39.567 82 41.5C82 43.433 83.567 45 85.5 45Z" fill="white"/>
<circle cx="86" cy="42" r="27.5" stroke="white" stroke-width="7"/>
<circle cx="31" cy="42" r="27.5" stroke="white" stroke-width="7"/>
<path fill-rule="evenodd" clip-rule="evenodd" d="M0 14.5C0 16.433 1.567 18 3.5 18H30.5C32.433 18 34 16.433 34 14.5C34 12.567 32.433 11 30.5 11H7L7 3.5C7 1.567 5.433 0 3.5 0C1.567 0 0 1.567 0 3.5V14.5Z" fill="white"/>
</svg>
