<svg width="137" height="137" viewBox="0 0 137 137" fill="none" xmlns="http://www.w3.org/2000/svg">
<path fill-rule="evenodd" clip-rule="evenodd" d="M68.5 137C106.332 137 137 106.332 137 68.5C137 30.6685 106.332 0 68.5 0C30.6685 0 0 30.6685 0 68.5C0 106.332 30.6685 137 68.5 137ZM97.1189 69.9988L87.7372 44.0104C88.3271 44.0285 89.0164 44.0204 89.7771 44.0115C94.8028 43.9527 102.943 43.8575 106.093 51.0231C109.718 59.2734 101.606 66.2862 97.1189 69.9988ZM91.0004 92.2746L73.8687 44.0104H58.7765L79.9872 103L91.0004 92.2746ZM29 44.0104L50.2107 103L61.6318 92.2746L44.0922 44.0104H29Z" fill="white"/>
</svg>
